<svg width="35" height="35" viewBox="0 0 35 35" fill="none" xmlns="http://www.w3.org/2000/svg">
<circle cx="17.5" cy="17.5" r="17.5" fill="#E6E9EE"/>
<path fill-rule="evenodd" clip-rule="evenodd" d="M25 17C25 17.1326 24.9473 17.2598 24.8536 17.3536C24.7598 17.4473 24.6326 17.5 24.5 17.5H12.707L15.854 20.646C15.9479 20.7399 16.0006 20.8672 16.0006 21C16.0006 21.1328 15.9479 21.2601 15.854 21.354C15.7601 21.4479 15.6328 21.5007 15.5 21.5007C15.3672 21.5007 15.2399 21.4479 15.146 21.354L11.146 17.354C11.0994 17.3076 11.0625 17.2524 11.0373 17.1917C11.0121 17.1309 10.9991 17.0658 10.9991 17C10.9991 16.9343 11.0121 16.8691 11.0373 16.8084C11.0625 16.7476 11.0994 16.6925 11.146 16.646L15.146 12.646C15.2399 12.5521 15.3672 12.4994 15.5 12.4994C15.6328 12.4994 15.7601 12.5521 15.854 12.646C15.9479 12.7399 16.0006 12.8672 16.0006 13C16.0006 13.1328 15.9479 13.2601 15.854 13.354L12.707 16.5H24.5C24.6326 16.5 24.7598 16.5527 24.8536 16.6465C24.9473 16.7402 25 16.8674 25 17Z" fill="#042656"/>
</svg>
