<svg width="32" height="32" viewBox="0 0 32 32" fill="none" xmlns="http://www.w3.org/2000/svg">
<path d="M12.1805 3.33331C8.62545 3.41431 6.549 3.75273 5.13025 5.16654C3.88854 6.40394 3.47348 8.14339 3.33472 10.9333M19.8222 3.33331C23.3773 3.41431 25.4538 3.75273 26.8725 5.16654C28.1142 6.40394 28.5293 8.14339 28.6681 10.9333M19.8222 28.6666C23.3773 28.5857 25.4538 28.2472 26.8725 26.8334C28.1142 25.596 28.5293 23.8565 28.6681 21.0666M12.1805 28.6666C8.62545 28.5857 6.549 28.2472 5.13025 26.8334C3.88854 25.596 3.47348 23.8565 3.33472 21.0666" stroke="white" stroke-width="2" stroke-linecap="round" stroke-linejoin="round"/>
<path d="M10.6667 22.6666C13.118 19.2061 18.8251 19.0173 21.3334 22.6666M19.3334 12.6666C19.3334 14.5076 17.841 16 16.0001 16C14.1591 16 12.6667 14.5076 12.6667 12.6666C12.6667 10.8257 14.1591 9.33331 16.0001 9.33331C17.841 9.33331 19.3334 10.8257 19.3334 12.6666Z" stroke="white" stroke-width="2" stroke-linecap="round"/>
</svg>
