<svg width="32" height="32" viewBox="0 0 32 32" fill="none" xmlns="http://www.w3.org/2000/svg">
<path d="M14.3333 3.26667C15.2667 2.48 16.7733 2.48 17.68 3.26667L19.7867 5.06667C20.1867 5.4 20.9467 5.68 21.48 5.68H23.7467C25.16 5.68 26.32 6.84 26.32 8.25333V10.52C26.32 11.0533 26.6 11.8 26.9333 12.2L28.7333 14.3067C29.52 15.24 29.52 16.7467 28.7333 17.6533L26.9333 19.76C26.6 20.16 26.32 20.9067 26.32 21.44V23.7067C26.32 25.12 25.16 26.28 23.7467 26.28H21.48C20.9467 26.28 20.2 26.56 19.8 26.8933L17.6933 28.6933C16.76 29.48 15.2533 29.48 14.3467 28.6933L12.24 26.8933C11.84 26.56 11.08 26.28 10.56 26.28H8.22667C6.81334 26.28 5.65334 25.12 5.65334 23.7067V21.4267C5.65334 20.9067 5.38667 20.1467 5.05334 19.76L3.25334 17.64C2.48001 16.72 2.48001 15.2267 3.25334 14.3067L5.05334 12.1867C5.38667 11.7867 5.65334 11.04 5.65334 10.52V8.26667C5.65334 6.85333 6.81334 5.69333 8.22667 5.69333H10.5333C11.0667 5.69333 11.8133 5.41333 12.2133 5.08L14.3333 3.26667Z" stroke="#981B1B" stroke-width="2" stroke-linecap="round" stroke-linejoin="round"/>
<path d="M16 10.84V17.28" stroke="#981B1B" stroke-width="2" stroke-linecap="round" stroke-linejoin="round"/>
<path d="M15.9927 21.3333H16.0047" stroke="#981B1B" stroke-width="2" stroke-linecap="round" stroke-linejoin="round"/>
</svg>
