<svg width="149" height="142" viewBox="0 0 149 142" fill="none" xmlns="http://www.w3.org/2000/svg">
<g clip-path="url(#clip0_1_1601)">
<path fill-rule="evenodd" clip-rule="evenodd" d="M137.442 70.4203C134.878 73.8899 135.603 79.4168 139.853 83.0631C135.642 80.0987 130.131 80.1947 126.946 83.8594C129.72 79.8267 128.52 74.4652 124.471 71.0504C128.759 74.1533 134.185 73.9602 137.442 70.4204L137.442 70.4203Z" fill="#1CCB00"/>
</g>
<g clip-path="url(#clip1_1_1601)">
<path fill-rule="evenodd" clip-rule="evenodd" d="M11.9751 62.2566C10.4986 64.2542 10.9162 67.4364 13.3628 69.5358C10.9385 67.829 7.76531 67.8842 5.93176 69.9942C7.52906 67.6724 6.83808 64.5855 4.5068 62.6194C6.97545 64.4059 10.0996 64.2947 11.9751 62.2566L11.9751 62.2566Z" fill="#042656"/>
</g>
<g clip-path="url(#clip2_1_1601)">
<path fill-rule="evenodd" clip-rule="evenodd" d="M56.509 23.0008C54.644 25.5241 55.1715 29.5436 58.262 32.1955C55.1997 30.0396 51.1914 30.1094 48.8754 32.7746C50.893 29.8418 50.0202 25.9425 47.0754 23.459C50.1937 25.7157 54.14 25.5752 56.509 23.0008L56.509 23.0008Z" fill="#042656"/>
</g>
<g clip-path="url(#clip3_1_1601)">
<path fill-rule="evenodd" clip-rule="evenodd" d="M10.4115 89.3907C12.2697 84.8279 10.4052 79.1495 5.39274 76.6498C10.226 78.432 15.7342 76.5074 18.1744 71.5306C16.2215 76.7658 18.5283 82.1101 23.2922 84.4281C18.3532 82.5229 12.9505 84.5235 10.4115 89.3907L10.4115 89.3907Z" fill="#1CCB00"/>
</g>
<g clip-path="url(#clip4_1_1601)">
<path fill-rule="evenodd" clip-rule="evenodd" d="M137.937 56.6549C139.007 54.0278 137.933 50.7585 135.047 49.3192C137.83 50.3454 141.001 49.2373 142.406 46.3718C141.282 49.386 142.61 52.463 145.353 53.7977C142.509 52.7007 139.399 53.8526 137.937 56.6549L137.937 56.6549Z" fill="#042656"/>
</g>
<g clip-path="url(#clip5_1_1601)">
<path fill-rule="evenodd" clip-rule="evenodd" d="M101.344 113.411C102.695 110.092 101.339 105.963 97.6938 104.145C101.209 105.441 105.215 104.041 106.99 100.422C105.569 104.229 107.247 108.116 110.712 109.802C107.12 108.416 103.19 109.871 101.344 113.411L101.344 113.411Z" fill="#042656"/>
</g>
<path d="M101.277 72.2012C101.277 79.542 98.361 86.5821 93.1702 91.7729C87.9795 96.9636 80.9393 99.8797 73.5985 99.8797C66.2577 99.8797 59.2175 96.9636 54.0268 91.7729C48.8361 86.5821 45.9199 79.542 45.9199 72.2012C45.9199 64.8603 48.8361 57.8202 54.0268 52.6295C59.2175 47.4387 66.2577 44.5226 73.5985 44.5226C80.9393 44.5226 87.9795 47.4387 93.1702 52.6295C98.361 57.8202 101.277 64.8603 101.277 72.2012ZM87.5416 61.7179C87.2944 61.4716 87.0002 61.2777 86.6764 61.1478C86.3526 61.0178 86.0059 60.9545 85.6571 60.9616C85.3083 60.9687 84.9645 61.0461 84.6462 61.1891C84.328 61.3322 84.0419 61.5379 83.805 61.794L71.789 77.1037L64.5476 69.8589C64.0557 69.4005 63.4051 69.151 62.7329 69.1628C62.0606 69.1747 61.4192 69.447 60.9438 69.9224C60.4684 70.3979 60.196 71.0393 60.1842 71.7115C60.1723 72.3838 60.4218 73.0344 60.8802 73.5263L70.0349 82.6844C70.2815 82.9306 70.5752 83.1246 70.8984 83.2548C71.2216 83.385 71.5677 83.4488 71.9161 83.4423C72.2645 83.4359 72.6081 83.3593 72.9262 83.2172C73.2444 83.0751 73.5307 82.8704 73.768 82.6152L87.5796 65.3507C88.0505 64.8611 88.3106 64.2065 88.3042 63.5272C88.2977 62.848 88.0251 62.1984 87.545 61.7179H87.5416Z" fill="#1CCB00"/>
<path d="M73.5986 42.4259C81.4955 42.4259 89.0694 45.5627 94.6533 51.1466C100.237 56.7306 103.374 64.3044 103.374 72.2013C103.374 80.0982 100.237 87.672 94.6533 93.256C89.0694 98.8399 81.4955 101.977 73.5986 101.977C65.7018 101.977 58.1279 98.8399 52.5439 93.256C46.96 87.672 43.8233 80.0982 43.8232 72.2013C43.8232 64.3044 46.96 56.7306 52.5439 51.1466C58.1279 45.5626 65.7017 42.4259 73.5986 42.4259ZM85.7002 63.0577C85.6333 63.0591 85.5669 63.0743 85.5059 63.1017C85.4562 63.124 85.4118 63.1556 85.3721 63.1925L73.4385 78.3986L71.9785 80.2589L70.3057 78.5861L63.1094 71.3859C63.016 71.3027 62.8948 71.2567 62.7695 71.2589C62.6406 71.2613 62.5179 71.3142 62.4268 71.4054C62.3356 71.4966 62.2826 71.6193 62.2803 71.7482C62.2781 71.8734 62.3241 71.9947 62.4072 72.088L71.5156 81.2003C71.5629 81.2475 71.6197 81.2847 71.6816 81.3097C71.7436 81.3346 71.8102 81.347 71.877 81.3458C71.9438 81.3446 72.0102 81.3301 72.0713 81.3029C72.1233 81.2796 72.1688 81.2454 72.21 81.2062L85.9424 64.0411L86.002 63.9659L86.0684 63.8976C86.1587 63.8036 86.2083 63.6774 86.207 63.547C86.2058 63.4239 86.158 63.3073 86.0752 63.2169L86.0615 63.2032C86.0141 63.156 85.9576 63.1188 85.8955 63.0939C85.8335 63.069 85.767 63.0564 85.7002 63.0577Z" stroke="#1CCB00" stroke-opacity="0.25" stroke-width="4.19372"/>
<defs>
<clipPath id="clip0_1_1601">
<rect width="21.8313" height="19.1161" fill="white" transform="translate(129.417 62.8408) rotate(38)"/>
</clipPath>
<clipPath id="clip1_1_1601">
<rect width="12.5695" height="11.0062" fill="white" transform="translate(7.35449 57.892) rotate(38)"/>
</clipPath>
<clipPath id="clip2_1_1601">
<rect width="15.8773" height="13.9026" fill="white" transform="translate(50.6727 17.489) rotate(38)"/>
</clipPath>
<clipPath id="clip3_1_1601">
<rect width="21.8312" height="21.8312" fill="white" transform="translate(20.0205 94.8531) rotate(-156.5)"/>
</clipPath>
<clipPath id="clip4_1_1601">
<rect width="12.5695" height="12.5695" fill="white" transform="translate(143.469 59.8011) rotate(-156.5)"/>
</clipPath>
<clipPath id="clip5_1_1601">
<rect width="15.8772" height="15.8772" fill="white" transform="translate(108.333 117.384) rotate(-156.5)"/>
</clipPath>
</defs>
</svg>
