<svg width="80" height="80" viewBox="0 0 80 80" fill="none" xmlns="http://www.w3.org/2000/svg">
<g filter="url(#filter0_d_1_1635)">
<rect x="8" y="4" width="56" height="56" rx="28" fill="#FDE1E1" shape-rendering="crispEdges"/>
<path d="M34.3333 19.2667C35.2667 18.48 36.7733 18.48 37.68 19.2667L39.7867 21.0667C40.1867 21.4 40.9467 21.68 41.48 21.68H43.7467C45.16 21.68 46.32 22.84 46.32 24.2533V26.52C46.32 27.0533 46.6 27.8 46.9333 28.2L48.7333 30.3067C49.52 31.24 49.52 32.7467 48.7333 33.6533L46.9333 35.76C46.6 36.16 46.32 36.9067 46.32 37.44V39.7067C46.32 41.12 45.16 42.28 43.7467 42.28H41.48C40.9467 42.28 40.2 42.56 39.8 42.8933L37.6933 44.6933C36.76 45.48 35.2533 45.48 34.3467 44.6933L32.24 42.8933C31.84 42.56 31.08 42.28 30.56 42.28H28.2267C26.8133 42.28 25.6533 41.12 25.6533 39.7067V37.4267C25.6533 36.9067 25.3867 36.1467 25.0533 35.76L23.2533 33.64C22.48 32.72 22.48 31.2267 23.2533 30.3067L25.0533 28.1867C25.3867 27.7867 25.6533 27.04 25.6533 26.52V24.2667C25.6533 22.8533 26.8133 21.6933 28.2267 21.6933H30.5333C31.0667 21.6933 31.8133 21.4133 32.2133 21.08L34.3333 19.2667Z" stroke="#981B1B" stroke-width="2" stroke-linecap="round" stroke-linejoin="round"/>
<path d="M36 26.84V33.28" stroke="#981B1B" stroke-width="2" stroke-linecap="round" stroke-linejoin="round"/>
<path d="M35.9927 37.3333H36.0047" stroke="#981B1B" stroke-width="2" stroke-linecap="round" stroke-linejoin="round"/>
</g>
<defs>
<filter id="filter0_d_1_1635" x="0" y="0" width="80" height="80" filterUnits="userSpaceOnUse" color-interpolation-filters="sRGB">
<feFlood flood-opacity="0" result="BackgroundImageFix"/>
<feColorMatrix in="SourceAlpha" type="matrix" values="0 0 0 0 0 0 0 0 0 0 0 0 0 0 0 0 0 0 127 0" result="hardAlpha"/>
<feOffset dx="4" dy="8"/>
<feGaussianBlur stdDeviation="6"/>
<feComposite in2="hardAlpha" operator="out"/>
<feColorMatrix type="matrix" values="0 0 0 0 0.596078 0 0 0 0 0.105882 0 0 0 0 0.105882 0 0 0 0.2 0"/>
<feBlend mode="normal" in2="BackgroundImageFix" result="effect1_dropShadow_1_1635"/>
<feBlend mode="normal" in="SourceGraphic" in2="effect1_dropShadow_1_1635" result="shape"/>
</filter>
</defs>
</svg>
