<svg width="80" height="80" viewBox="0 0 80 80" fill="none" xmlns="http://www.w3.org/2000/svg">
<g filter="url(#filter0_d_1_1147)">
<rect x="8" y="4" width="56" height="56" rx="12" fill="#042656" shape-rendering="crispEdges"/>
<path d="M32.1805 19.3333C28.6255 19.4143 26.549 19.7527 25.1303 21.1665C23.8885 22.4039 23.4735 24.1434 23.3347 26.9333M39.8222 19.3333C43.3773 19.4143 45.4538 19.7527 46.8725 21.1665C48.1142 22.4039 48.5293 24.1434 48.6681 26.9333M39.8222 44.6666C43.3773 44.5857 45.4538 44.2472 46.8725 42.8334C48.1142 41.596 48.5293 39.8565 48.6681 37.0666M32.1805 44.6666C28.6255 44.5857 26.549 44.2472 25.1303 42.8334C23.8885 41.596 23.4735 39.8565 23.3347 37.0666" stroke="white" stroke-width="2" stroke-linecap="round" stroke-linejoin="round"/>
<path d="M30.6667 38.6666C33.118 35.2061 38.8251 35.0173 41.3334 38.6666M39.3334 28.6666C39.3334 30.5076 37.841 32 36.0001 32C34.1591 32 32.6667 30.5076 32.6667 28.6666C32.6667 26.8257 34.1591 25.3333 36.0001 25.3333C37.841 25.3333 39.3334 26.8257 39.3334 28.6666Z" stroke="white" stroke-width="2" stroke-linecap="round"/>
</g>
<defs>
<filter id="filter0_d_1_1147" x="0" y="0" width="80" height="80" filterUnits="userSpaceOnUse" color-interpolation-filters="sRGB">
<feFlood flood-opacity="0" result="BackgroundImageFix"/>
<feColorMatrix in="SourceAlpha" type="matrix" values="0 0 0 0 0 0 0 0 0 0 0 0 0 0 0 0 0 0 127 0" result="hardAlpha"/>
<feOffset dx="4" dy="8"/>
<feGaussianBlur stdDeviation="6"/>
<feComposite in2="hardAlpha" operator="out"/>
<feColorMatrix type="matrix" values="0 0 0 0 0.0156863 0 0 0 0 0.14902 0 0 0 0 0.337255 0 0 0 0.2 0"/>
<feBlend mode="normal" in2="BackgroundImageFix" result="effect1_dropShadow_1_1147"/>
<feBlend mode="normal" in="SourceGraphic" in2="effect1_dropShadow_1_1147" result="shape"/>
</filter>
</defs>
</svg>
